# xmcd
#
# Track frame offsets:
#	150
#	19905
#	41398
#	57248
#	79036
#	96724
#	123406
#	140400
#	163113
#	192822
#	214655
#	241114
#
# Disc length: 3492 seconds
#
# Revision: 1
# Processed by: cddbd v1.5.2PL0 Copyright (c) Steve Scherf et al.
# Submitted via: audiograbber 1.83.01
#
DISCID=a10da20c
DTITLE=Taj Mahal - Maestro
DYEAR=2008
DGENRE=
TTITLE0=Scratch My Back
TTITLE1=Never Let You Go
TTITLE2=Dust Me Down
TTITLE3=Further On Down the Road
TTITLE4=Black Man Brown Man
TTITLE5=Zanzibar
TTITLE6=TV Mama
TTITLE7=I Can Make You Happy
TTITLE8=Slow Drag
TTITLE9=Hello Josephine
TTITLE10=Strong Man Holler
TTITLE11=Diddy Wah Diddy
EXTD=
EXTT0=
EXTT1=
EXTT2=
EXTT3=
EXTT4=
EXTT5=
EXTT6=
EXTT7=
EXTT8=
EXTT9=
EXTT10=
EXTT11=
PLAYORDER=
